PathFileType	4	(X/Y/Z)	dyn.trc	
DataRate	CameraRate	NumFrames	NumMarkers	Units	OrigDataRate	OrigDataStartFrame	OrigNumFrames	
0.00	0.00	28	15	m	100.00	141	211	
Frame#	Time	RTT			RHF			RLM			RMM			RCA			RPT			RST			RVMB			RTN			RSMB			RFMB			RVMH			RSMH			RFMH			RPM			
		X1	Y1	Z1	X2	Y2	Z2	X3	Y3	Z3	X4	Y4	Z4	X5	Y5	Z5	X6	Y6	Z6	X7	Y7	Z7	X8	Y8	Z8	X9	Y9	Z9	X10	Y10	Z10	X11	Y11	Z11	X12	Y12	Z12	X13	Y13	Z13	X14	Y14	Z14	X15	Y15	Z15	

141	1.400	0.80784	0.40519	-0.08528	0.77148	0.46652	-0.04207	0.44464	0.23609	-0.09946	0.48524	0.22164	-0.16865	0.39906	0.26338	-0.15396	0.42361	0.22156	-0.10515	0.45860	0.21165	-0.16760	0.43058	0.17284	-0.08844	0.47149	0.17656	-0.16327	0.48798	0.15684	-0.10678	0.48828	0.13832	-0.14390	0.43598	0.12179	-0.07256	0.47713	0.09589	-0.10280	0.48925	0.09181	-0.13689	0.49947	0.05962	-0.13041 
142	1.410	0.82174	0.40645	-0.08465	0.78511	0.46755	-0.04169	0.45811	0.23836	-0.10008	0.49906	0.22320	-0.16911	0.41226	0.26416	-0.15531	0.43731	0.22368	-0.10571	0.47243	0.21286	-0.16791	0.44494	0.17553	-0.08787	0.48575	0.17794	-0.16284	0.50251	0.15976	-0.10576	0.50312	0.14040	-0.14241	0.45110	0.12503	-0.07052	0.49264	0.09883	-0.10013	0.50483	0.09404	-0.13411	0.51526	0.06193	-0.12692 
143	1.420	0.83567	0.40782	-0.08400	0.79865	0.46868	-0.04137	0.47188	0.24021	-0.10073	0.51317	0.22443	-0.16957	0.42568	0.26446	-0.15663	0.45130	0.22538	-0.10627	0.48655	0.21372	-0.16825	0.45965	0.17779	-0.08736	0.50033	0.17900	-0.16244	0.51742	0.16237	-0.10483	0.51833	0.14218	-0.14103	0.46669	0.12788	-0.06857	0.50861	0.10149	-0.09762	0.52084	0.09603	-0.13151	0.53155	0.06405	-0.12363 
144	1.430	0.84961	0.40927	-0.08335	0.81209	0.46992	-0.04111	0.48592	0.24161	-0.10137	0.52755	0.22532	-0.17003	0.43932	0.26432	-0.15791	0.46558	0.22664	-0.10683	0.50094	0.21423	-0.16860	0.47467	0.17963	-0.08690	0.51521	0.17973	-0.16207	0.53266	0.16463	-0.10401	0.53385	0.14366	-0.13976	0.48268	0.13035	-0.06673	0.52496	0.10385	-0.09529	0.53719	0.09775	-0.12909	0.54825	0.06594	-0.12058 
145	1.440	0.86356	0.41080	-0.08270	0.82545	0.47124	-0.04090	0.50022	0.24257	-0.10199	0.54220	0.22587	-0.17046	0.45318	0.26377	-0.15910	0.48012	0.22748	-0.10736	0.51559	0.21439	-0.16896	0.48999	0.18102	-0.08649	0.53035	0.18015	-0.16174	0.54818	0.16652	-0.10328	0.54965	0.14483	-0.13861	0.49902	0.13240	-0.06502	0.54162	0.10587	-0.09318	0.55383	0.09920	-0.12690	0.56529	0.06759	-0.11780 
146	1.450	0.87751	0.41239	-0.08207	0.83873	0.47263	-0.04073	0.51477	0.24308	-0.10258	0.55710	0.22607	-0.17085	0.46726	0.26281	-0.16018	0.49492	0.22788	-0.10786	0.53049	0.21422	-0.16931	0.50555	0.18198	-0.08613	0.54573	0.18026	-0.16145	0.56394	0.16804	-0.10266	0.56569	0.14568	-0.13760	0.51563	0.13403	-0.06348	0.55854	0.10754	-0.09129	0.57070	0.10035	-0.12494	0.58261	0.06898	-0.11530 
147	1.460	0.89145	0.41403	-0.08145	0.85194	0.47408	-0.04058	0.52955	0.24314	-0.10312	0.57224	0.22594	-0.17119	0.48157	0.26148	-0.16115	0.50995	0.22786	-0.10830	0.54562	0.21372	-0.16965	0.52135	0.18249	-0.08582	0.56135	0.18006	-0.16120	0.57994	0.16917	-0.10214	0.58195	0.14620	-0.13671	0.53250	0.13523	-0.06212	0.57569	0.10885	-0.08964	0.58779	0.10120	-0.12322	0.60018	0.07010	-0.11309 
148	1.470	0.90538	0.41572	-0.08088	0.86507	0.47558	-0.04047	0.54456	0.24277	-0.10362	0.58762	0.22549	-0.17148	0.49610	0.25977	-0.16200	0.52521	0.22739	-0.10870	0.56098	0.21291	-0.16998	0.53737	0.18257	-0.08557	0.57718	0.17957	-0.16099	0.59613	0.16990	-0.10171	0.59841	0.14641	-0.13595	0.54958	0.13599	-0.06093	0.59302	0.10978	-0.08823	0.60506	0.10173	-0.12174	0.61797	0.07093	-0.11117 
149	1.480	0.91927	0.41744	-0.08034	0.87813	0.47712	-0.04037	0.55978	0.24197	-0.10406	0.60321	0.22472	-0.17172	0.51085	0.25769	-0.16273	0.54069	0.22650	-0.10905	0.57656	0.21179	-0.17029	0.55360	0.18222	-0.08536	0.59323	0.17878	-0.16082	0.61251	0.17023	-0.10139	0.61508	0.14630	-0.13533	0.56687	0.13630	-0.05993	0.61053	0.11033	-0.08706	0.62251	0.10196	-0.12049	0.63597	0.07147	-0.10954 
150	1.490	0.93312	0.41920	-0.07984	0.89112	0.47869	-0.04029	0.57520	0.24074	-0.10445	0.61902	0.22365	-0.17192	0.52581	0.25526	-0.16335	0.55638	0.22519	-0.10935	0.59234	0.21036	-0.17058	0.57003	0.18144	-0.08519	0.60949	0.17772	-0.16070	0.62907	0.17018	-0.10115	0.63195	0.14589	-0.13482	0.58435	0.13618	-0.05911	0.62823	0.11051	-0.08610	0.64015	0.10188	-0.11947	0.65417	0.07172	-0.10818 
151	1.500	0.94691	0.42098	-0.07939	0.90403	0.48027	-0.04022	0.59082	0.23911	-0.10479	0.63503	0.22228	-0.17208	0.54098	0.25246	-0.16388	0.57226	0.22345	-0.10961	0.60834	0.20864	-0.17085	0.58666	0.18024	-0.08507	0.62597	0.17637	-0.16062	0.64581	0.16976	-0.10100	0.64902	0.14517	-0.13443	0.60203	0.13563	-0.05846	0.64611	0.11033	-0.08536	0.65799	0.10150	-0.11865	0.67259	0.07169	-0.10707 
152	1.510	0.96062	0.42278	-0.07899	0.91687	0.48185	-0.04017	0.60662	0.23709	-0.10509	0.65123	0.22063	-0.17222	0.55636	0.24930	-0.16431	0.58834	0.22130	-0.10984	0.62455	0.20663	-0.17111	0.60351	0.17865	-0.08499	0.64266	0.17475	-0.16058	0.66274	0.16896	-0.10091	0.66632	0.14417	-0.13414	0.61990	0.13466	-0.05797	0.66419	0.10980	-0.08479	0.67605	0.10082	-0.11801	0.69124	0.07138	-0.10620 
153	1.520	0.97426	0.42460	-0.07864	0.92961	0.48343	-0.04013	0.62261	0.23469	-0.10537	0.66762	0.21870	-0.17233	0.57195	0.24578	-0.16468	0.60462	0.21874	-0.11005	0.64097	0.20434	-0.17136	0.62057	0.17666	-0.08494	0.65958	0.17287	-0.16057	0.67985	0.16782	-0.10090	0.68384	0.14290	-0.13394	0.63799	0.13328	-0.05762	0.68248	0.10893	-0.08439	0.69433	0.09986	-0.11753	0.71014	0.07082	-0.10551 
154	1.530	0.98780	0.42644	-0.07834	0.94226	0.48498	-0.04011	0.63877	0.23192	-0.10562	0.68417	0.21650	-0.17245	0.58774	0.24189	-0.16500	0.62108	0.21579	-0.11025	0.65760	0.20176	-0.17159	0.63784	0.17429	-0.08493	0.67672	0.17073	-0.16060	0.69717	0.16635	-0.10093	0.70160	0.14137	-0.13381	0.65629	0.13152	-0.05740	0.70100	0.10776	-0.08411	0.71287	0.09865	-0.11718	0.72930	0.07001	-0.10500 
155	1.540	1.00124	0.42828	-0.07809	0.95480	0.48650	-0.04010	0.65512	0.22880	-0.10586	0.70088	0.21405	-0.17256	0.60374	0.23763	-0.16529	0.63774	0.21246	-0.11045	0.67445	0.19891	-0.17182	0.65534	0.17157	-0.08495	0.69411	0.16834	-0.16066	0.71469	0.16456	-0.10101	0.71961	0.13959	-0.13374	0.67481	0.12938	-0.05727	0.71977	0.10630	-0.08394	0.73167	0.09719	-0.11694	0.74873	0.06899	-0.10462 
156	1.550	1.01456	0.43014	-0.07788	0.96723	0.48797	-0.04012	0.67165	0.22535	-0.10610	0.71775	0.21134	-0.17269	0.61996	0.23301	-0.16555	0.65459	0.20876	-0.11065	0.69153	0.19579	-0.17204	0.67306	0.16851	-0.08499	0.71173	0.16570	-0.16073	0.73242	0.16250	-0.10112	0.73787	0.13759	-0.13372	0.69357	0.12691	-0.05723	0.73879	0.10459	-0.08385	0.75076	0.09552	-0.11677	0.76846	0.06776	-0.10434 
157	1.560	1.02777	0.43199	-0.07771	0.97953	0.48937	-0.04016	0.68836	0.22158	-0.10635	0.73477	0.20839	-0.17285	0.63639	0.22802	-0.16580	0.67162	0.20471	-0.11087	0.70883	0.19240	-0.17226	0.69101	0.16513	-0.08505	0.72961	0.16282	-0.16082	0.75037	0.16017	-0.10125	0.75639	0.13537	-0.13373	0.71257	0.12413	-0.05724	0.75808	0.10265	-0.08380	0.77014	0.09366	-0.11664	0.78849	0.06637	-0.10412 
158	1.570	1.04084	0.43383	-0.07760	0.99171	0.49069	-0.04023	0.70525	0.21751	-0.10661	0.75194	0.20520	-0.17303	0.65304	0.22267	-0.16606	0.68886	0.20034	-0.11110	0.72637	0.18875	-0.17247	0.70920	0.16145	-0.08513	0.74774	0.15971	-0.16091	0.76854	0.15761	-0.10139	0.77517	0.13296	-0.13375	0.73181	0.12107	-0.05730	0.77764	0.10052	-0.08378	0.78982	0.09163	-0.11654	0.80882	0.06483	-0.10395 
159	1.580	1.05379	0.43567	-0.07752	1.00376	0.49191	-0.04033	0.72232	0.21317	-0.10689	0.76926	0.20177	-0.17324	0.66993	0.21697	-0.16634	0.70630	0.19566	-0.11135	0.74415	0.18486	-0.17268	0.72763	0.15750	-0.08521	0.76612	0.15638	-0.16100	0.78693	0.15484	-0.10152	0.79421	0.13036	-0.13378	0.75130	0.11777	-0.05738	0.79747	0.09821	-0.08376	0.80980	0.08945	-0.11645	0.82946	0.06319	-0.10378 
160	1.590	1.06661	0.43748	-0.07750	1.01566	0.49302	-0.04046	0.73959	0.20858	-0.10719	0.78674	0.19813	-0.17348	0.68707	0.21094	-0.16662	0.72394	0.19069	-0.11162	0.76217	0.18073	-0.17288	0.74630	0.15331	-0.08530	0.78476	0.15284	-0.16108	0.80555	0.15189	-0.10164	0.81350	0.12760	-0.13379	0.77102	0.11425	-0.05746	0.81757	0.09577	-0.08373	0.83008	0.08717	-0.11634	0.85040	0.06145	-0.10359 
161	1.600	1.07929	0.43926	-0.07752	1.02743	0.49401	-0.04062	0.75706	0.20374	-0.10752	0.80439	0.19428	-0.17375	0.70445	0.20459	-0.16693	0.74180	0.18547	-0.11190	0.78043	0.17637	-0.17309	0.76521	0.14889	-0.08538	0.80366	0.14910	-0.16116	0.82440	0.14879	-0.10175	0.83304	0.12469	-0.13379	0.79099	0.11056	-0.05753	0.83794	0.09321	-0.08367	0.85065	0.08479	-0.11619	0.87164	0.05966	-0.10336 
162	1.610	1.09182	0.44100	-0.07760	1.03905	0.49486	-0.04082	0.77472	0.19868	-0.10787	0.82221	0.19022	-0.17405	0.72211	0.19793	-0.16727	0.75988	0.18002	-0.11220	0.79893	0.17180	-0.17329	0.78436	0.14428	-0.08546	0.82281	0.14519	-0.16122	0.84347	0.14556	-0.10182	0.85282	0.12165	-0.13376	0.81120	0.10672	-0.05757	0.85855	0.09057	-0.08356	0.87149	0.08235	-0.11601	0.89315	0.05784	-0.10308 
163	1.620	1.10422	0.44270	-0.07773	1.05052	0.49555	-0.04105	0.79259	0.19343	-0.10825	0.84023	0.18599	-0.17437	0.74004	0.19100	-0.16762	0.77819	0.17436	-0.11250	0.81767	0.16702	-0.17348	0.80375	0.13949	-0.08551	0.84222	0.14111	-0.16126	0.86276	0.14223	-0.10187	0.87283	0.11850	-0.13370	0.83164	0.10277	-0.05757	0.87941	0.08786	-0.08340	0.89261	0.07986	-0.11577	0.91494	0.05602	-0.10274 
164	1.630	1.11647	0.44435	-0.07792	1.06185	0.49610	-0.04133	0.81068	0.18799	-0.10864	0.85845	0.18158	-0.17471	0.75827	0.18382	-0.16799	0.79675	0.16851	-0.11281	0.83666	0.16206	-0.17367	0.82339	0.13455	-0.08556	0.86188	0.13688	-0.16128	0.88227	0.13881	-0.10187	0.89307	0.11526	-0.13360	0.85230	0.09875	-0.05754	0.90049	0.08512	-0.08318	0.91398	0.07736	-0.11548	0.93698	0.05422	-0.10232 
165	1.640	1.12857	0.44593	-0.07817	1.07303	0.49649	-0.04164	0.82899	0.18239	-0.10903	0.87690	0.17703	-0.17505	0.77679	0.17641	-0.16837	0.81556	0.16250	-0.11311	0.85588	0.15693	-0.17385	0.84327	0.12949	-0.08557	0.88179	0.13253	-0.16129	0.90200	0.13533	-0.10184	0.91353	0.11195	-0.13346	0.87320	0.09466	-0.05745	0.92180	0.08236	-0.08291	0.93559	0.07487	-0.11512	0.95925	0.05246	-0.10183 
166	1.650	1.14051	0.44745	-0.07848	1.08406	0.49671	-0.04198	0.84753	0.17664	-0.10943	0.89558	0.17235	-0.17540	0.79562	0.16881	-0.16875	0.83463	0.15635	-0.11339	0.87534	0.15166	-0.17402	0.86340	0.12433	-0.08557	0.90195	0.12808	-0.16126	0.92194	0.13182	-0.10178	0.93421	0.10859	-0.13328	0.89431	0.09055	-0.05731	0.94332	0.07961	-0.08257	0.95744	0.07240	-0.11471	0.98173	0.05076	-0.10126 
167	1.660	1.15229	0.44889	-0.07885	1.09493	0.49677	-0.04237	0.86631	0.17075	-0.10981	0.91452	0.16757	-0.17575	0.81477	0.16104	-0.16913	0.85397	0.15009	-0.11365	0.89503	0.14626	-0.17417	0.88377	0.11909	-0.08553	0.92236	0.12356	-0.16122	0.94208	0.12827	-0.10167	0.95509	0.10520	-0.13305	0.91564	0.08642	-0.05713	0.96504	0.07689	-0.08218	0.97950	0.06998	-0.11425	1.00442	0.04914	-0.10063 
168	1.670	1.16390	0.45025	-0.07928	1.10565	0.49668	-0.04280	0.88535	0.16475	-0.11017	0.93372	0.16272	-0.17610	0.83424	0.15313	-0.16949	0.87360	0.14373	-0.11389	0.91497	0.14076	-0.17430	0.90439	0.11378	-0.08547	0.94301	0.11899	-0.16116	0.96244	0.12472	-0.10153	0.97618	0.10181	-0.13279	0.93719	0.08231	-0.05690	0.98695	0.07421	-0.08174	1.00176	0.06762	-0.11374	1.02728	0.04760	-0.09993 
